<?xml version="1.0" standalone="no"?>
<!DOCTYPE svg PUBLIC "-//W3C//DTD SVG 20010904//EN"
 "http://www.w3.org/TR/2001/REC-SVG-20010904/DTD/svg10.dtd">
<svg version="1.0" xmlns="http://www.w3.org/2000/svg"
 width="192.000000pt" height="192.000000pt" viewBox="0 0 192.000000 192.000000"
 preserveAspectRatio="xMidYMid meet">

<g transform="translate(0.000000,192.000000) scale(0.100000,-0.100000)"
fill="#000000" stroke="none">
<path d="M1372 1845 c-84 -37 -172 -125 -188 -189 -4 -19 -11 -25 -23 -21
-131 41 -384 29 -520 -25 l-47 -18 -44 50 c-49 58 -106 87 -167 88 -37 0 -49
-6 -86 -42 -78 -75 -100 -170 -76 -318 11 -64 10 -70 -10 -99 -39 -54 -98
-193 -115 -268 -19 -83 -21 -219 -5 -295 42 -201 172 -383 352 -492 151 -91
256 -119 452 -120 154 0 223 15 363 80 194 90 319 209 411 391 51 101 75 204
75 320 1 93 3 103 21 108 56 15 111 103 102 161 -12 74 -96 117 -168 87 -17
-7 -33 -12 -34 -11 -1 2 -15 23 -30 48 -15 25 -48 69 -72 98 l-45 52 23 63
c32 87 34 252 3 293 -46 62 -113 85 -172 59z m113 -41 c25 -22 26 -24 5 -11
-47 27 -86 30 -135 8 -55 -24 -59 -19 -7 8 53 28 100 27 137 -5z m-27 -104
c21 -30 23 -43 19 -93 -3 -32 -7 -61 -10 -63 -2 -2 -34 14 -71 36 -37 22 -80
43 -96 47 -37 7 -37 13 -2 48 72 73 122 81 160 25z m-1070 -10 c-57 -10 -87
-36 -119 -103 -16 -34 -29 -54 -29 -44 0 30 48 114 77 135 30 22 69 31 93 23
8 -3 -1 -8 -22 -11z m611 -76 c2 -2 -25 -3 -60 -3 -64 0 -116 -8 -243 -36 -38
-8 -71 -13 -73 -11 -9 9 133 39 277 60 24 3 91 -3 99 -10z m-507 -92 l50 -48
-95 -87 c-71 -65 -96 -83 -101 -72 -3 9 -8 51 -12 93 -5 62 -3 85 10 110 35
67 80 69 148 4z m798 -181 c16 -5 -10 -9 -76 -13 -90 -4 -107 -8 -164 -39 -80
-42 -130 -91 -170 -166 -35 -66 -30 -32 5 37 21 41 48 71 111 123 59 49 218
80 294 58z m499 -116 c62 -32 65 -123 6 -182 -38 -38 -51 -41 -60 -12 -7 20
-7 20 -21 2 -14 -17 -15 -17 -30 5 -9 12 -23 22 -30 22 -18 0 -18 19 0 39 10
11 12 21 6 31 -8 13 -10 12 -10 -2 0 -9 -4 -20 -10 -23 -19 -12 -10 42 13 76
38 56 84 71 136 44z m-1559 -15 c0 -5 -5 -10 -11 -10 -5 0 -7 5 -4 10 3 6 8
10 11 10 2 0 4 -4 4 -10z m990 -22 c0 -6 -3 -9 -6 -5 -3 3 -18 1 -34 -4 -20
-7 -26 -15 -23 -28 7 -28 -20 -44 -51 -30 -33 15 -33 23 2 47 39 28 112 41
112 20z m6 -21 c25 9 5 -23 -22 -36 -15 -6 -23 -7 -19 -1 3 5 1 10 -4 10 -6 0
-11 8 -11 18 0 13 2 14 9 4 6 -11 10 -10 16 5 4 11 9 13 12 6 2 -7 11 -9 19
-6z m-610 -239 c4 -7 3 -8 -5 -4 -6 4 -14 0 -17 -9 -6 -14 -8 -14 -18 0 -12
16 -29 9 -39 -15 -4 -12 -6 -12 -6 2 -2 32 -57 -11 -72 -54 -7 -21 -14 -36
-17 -34 -9 10 22 79 46 101 21 19 38 25 74 25 26 0 50 -5 54 -12z m-1 -58 c17
-11 27 -20 24 -20 -9 0 -69 31 -69 36 0 9 16 3 45 -16z m-47 -7 c-3 -5 -10
-23 -17 -40 -14 -34 -31 -44 -31 -18 0 20 29 65 42 65 5 0 8 -3 6 -7z m797
-19 c-44 -35 -165 -76 -165 -56 0 5 20 15 43 21 24 6 64 19 88 30 54 24 60 25
34 5z m-713 -7 c-7 -7 -7 -18 -2 -27 5 -9 3 -21 -6 -34 -8 -11 -14 -28 -14
-38 0 -21 -28 -24 -36 -4 -6 15 32 96 50 108 17 11 20 9 8 -5z m-93 -53 c-12
-26 -22 -53 -22 -61 0 -7 -9 -13 -19 -13 -15 0 -17 5 -12 28 9 35 14 43 23 37
5 -2 16 11 27 30 27 51 30 34 3 -21z m36 11 c-8 -21 -18 -36 -21 -33 -2 3 3
22 12 42 23 47 30 39 9 -9z m-95 26 c0 -6 -5 -13 -10 -16 -6 -4 -8 -10 -6 -14
3 -4 -4 -13 -15 -19 -19 -12 -19 -11 -9 8 6 11 8 24 5 29 -3 5 1 12 7 14 20 8
28 8 28 -2z m-7 -86 c-9 -15 -11 -15 -23 0 -11 13 -10 15 4 9 13 -5 15 -2 10
12 -5 15 -4 16 6 7 8 -7 9 -17 3 -28z m74 -7 c-3 -8 -6 -5 -6 6 -1 11 2 17 5
13 3 -3 4 -12 1 -19z"/>
<path d="M1670 1170 c0 -5 5 -10 11 -10 5 0 7 5 4 10 -3 6 -8 10 -11 10 -2 0
-4 -4 -4 -10z"/>
<path d="M1687 1113 c-4 -3 -6 -18 -6 -32 1 -17 3 -20 6 -8 2 9 9 17 14 17 5
0 9 7 9 15 0 16 -12 20 -23 8z"/>
<path d="M1121 1138 c0 -12 3 -17 6 -10 2 6 9 9 15 6 6 -4 9 -1 6 6 -8 24 -28
23 -27 -2z"/>
<path d="M622 788 c-14 -14 -16 -28 -3 -28 9 0 24 30 18 36 -2 2 -9 -2 -15 -8z"/>
</g>
</svg>
